<mxfile host="app.diagrams.net" agent="Mozilla/5.0 (Windows NT 10.0; Win64; x64) AppleWebKit/537.36 (KHTML, like Gecko) Chrome/131.0.0.0 Safari/537.36" version="26.0.2">
  <diagram name="Page-1" id="GqTC5QWji8bgGsD9CqG-">
    <mxGraphModel dx="877" dy="359" grid="1" gridSize="10" guides="1" tooltips="1" connect="1" arrows="1" fold="1" page="1" pageScale="1" pageWidth="850" pageHeight="1100" math="0" shadow="0">
      <root>
        <mxCell id="0" />
        <mxCell id="1" parent="0" />
        <mxCell id="Ez3ZbAeKuc7IrQRngPXJ-10" style="edgeStyle=orthogonalEdgeStyle;rounded=0;orthogonalLoop=1;jettySize=auto;html=1;exitX=1;exitY=0.25;exitDx=0;exitDy=0;entryX=0;entryY=0.25;entryDx=0;entryDy=0;" edge="1" parent="1" source="Ez3ZbAeKuc7IrQRngPXJ-1" target="Ez3ZbAeKuc7IrQRngPXJ-2">
          <mxGeometry relative="1" as="geometry" />
        </mxCell>
        <mxCell id="Ez3ZbAeKuc7IrQRngPXJ-66" value="&lt;font style=&quot;font-size: 8px;&quot;&gt;GET/recipes&lt;/font&gt;" style="edgeLabel;html=1;align=center;verticalAlign=middle;resizable=0;points=[];fontFamily=Helvetica;fontSize=11;fontColor=default;labelBackgroundColor=default;" vertex="1" connectable="0" parent="Ez3ZbAeKuc7IrQRngPXJ-10">
          <mxGeometry x="0.2927" y="1" relative="1" as="geometry">
            <mxPoint as="offset" />
          </mxGeometry>
        </mxCell>
        <mxCell id="Ez3ZbAeKuc7IrQRngPXJ-11" style="edgeStyle=orthogonalEdgeStyle;rounded=0;orthogonalLoop=1;jettySize=auto;html=1;exitX=1;exitY=0.5;exitDx=0;exitDy=0;entryX=0;entryY=0.5;entryDx=0;entryDy=0;" edge="1" parent="1" source="Ez3ZbAeKuc7IrQRngPXJ-1" target="Ez3ZbAeKuc7IrQRngPXJ-2">
          <mxGeometry relative="1" as="geometry" />
        </mxCell>
        <mxCell id="Ez3ZbAeKuc7IrQRngPXJ-14" value="&lt;font style=&quot;font-size: 8px;&quot;&gt;GET/recipes/:id&lt;/font&gt;" style="edgeLabel;html=1;align=center;verticalAlign=middle;resizable=0;points=[];" vertex="1" connectable="0" parent="Ez3ZbAeKuc7IrQRngPXJ-11">
          <mxGeometry x="-0.0723" relative="1" as="geometry">
            <mxPoint x="30" as="offset" />
          </mxGeometry>
        </mxCell>
        <mxCell id="Ez3ZbAeKuc7IrQRngPXJ-12" style="edgeStyle=orthogonalEdgeStyle;rounded=0;orthogonalLoop=1;jettySize=auto;html=1;exitX=1;exitY=0.75;exitDx=0;exitDy=0;entryX=0;entryY=0.75;entryDx=0;entryDy=0;" edge="1" parent="1" source="Ez3ZbAeKuc7IrQRngPXJ-1" target="Ez3ZbAeKuc7IrQRngPXJ-2">
          <mxGeometry relative="1" as="geometry" />
        </mxCell>
        <mxCell id="Ez3ZbAeKuc7IrQRngPXJ-15" value="&lt;font style=&quot;&quot;&gt;&lt;font style=&quot;font-size: 6px;&quot;&gt;POST&lt;br&gt;&lt;/font&gt;&lt;font style=&quot;font-size: 6px;&quot;&gt;DELETE&lt;/font&gt;&lt;br&gt;&lt;span style=&quot;font-size: 8px;&quot;&gt;/favourites&lt;/span&gt;&lt;/font&gt;" style="edgeLabel;html=1;align=center;verticalAlign=middle;resizable=0;points=[];" vertex="1" connectable="0" parent="Ez3ZbAeKuc7IrQRngPXJ-12">
          <mxGeometry x="-0.0938" y="-1" relative="1" as="geometry">
            <mxPoint x="32" as="offset" />
          </mxGeometry>
        </mxCell>
        <mxCell id="Ez3ZbAeKuc7IrQRngPXJ-32" style="edgeStyle=orthogonalEdgeStyle;rounded=0;orthogonalLoop=1;jettySize=auto;html=1;exitX=0.5;exitY=0;exitDx=0;exitDy=0;entryX=0.5;entryY=0;entryDx=0;entryDy=0;" edge="1" parent="1">
          <mxGeometry relative="1" as="geometry">
            <mxPoint x="30" y="359.98" as="sourcePoint" />
            <mxPoint x="270.0000000000001" y="359.98" as="targetPoint" />
            <Array as="points">
              <mxPoint x="30" y="330" />
              <mxPoint x="270" y="330" />
            </Array>
          </mxGeometry>
        </mxCell>
        <mxCell id="Ez3ZbAeKuc7IrQRngPXJ-33" value="&lt;font style=&quot;font-size: 9px;&quot;&gt;/login&lt;/font&gt;" style="edgeLabel;html=1;align=center;verticalAlign=middle;resizable=0;points=[];" vertex="1" connectable="0" parent="Ez3ZbAeKuc7IrQRngPXJ-32">
          <mxGeometry x="-0.0076" y="-1" relative="1" as="geometry">
            <mxPoint as="offset" />
          </mxGeometry>
        </mxCell>
        <mxCell id="Ez3ZbAeKuc7IrQRngPXJ-40" style="edgeStyle=orthogonalEdgeStyle;rounded=0;orthogonalLoop=1;jettySize=auto;html=1;entryX=0.5;entryY=1;entryDx=0;entryDy=0;exitX=0.325;exitY=-0.027;exitDx=0;exitDy=0;exitPerimeter=0;" edge="1" parent="1" source="Ez3ZbAeKuc7IrQRngPXJ-1">
          <mxGeometry relative="1" as="geometry">
            <mxPoint x="70.00325581395349" y="299.98" as="sourcePoint" />
            <mxPoint x="279.98" y="359.98" as="targetPoint" />
            <Array as="points">
              <mxPoint x="30" y="300" />
              <mxPoint x="280" y="300" />
            </Array>
          </mxGeometry>
        </mxCell>
        <mxCell id="Ez3ZbAeKuc7IrQRngPXJ-42" value="&lt;font style=&quot;font-size: 9px;&quot;&gt;/register&lt;/font&gt;" style="edgeLabel;html=1;align=center;verticalAlign=middle;resizable=0;points=[];" vertex="1" connectable="0" parent="Ez3ZbAeKuc7IrQRngPXJ-40">
          <mxGeometry x="-0.1557" y="2" relative="1" as="geometry">
            <mxPoint as="offset" />
          </mxGeometry>
        </mxCell>
        <mxCell id="Ez3ZbAeKuc7IrQRngPXJ-1" value="&lt;font style=&quot;font-size: 10px;&quot;&gt;React Frontend&lt;/font&gt;" style="whiteSpace=wrap;html=1;align=center;rounded=1;shadow=0;glass=0;" vertex="1" parent="1">
          <mxGeometry x="10" y="359.98" width="60" height="119" as="geometry" />
        </mxCell>
        <mxCell id="Ez3ZbAeKuc7IrQRngPXJ-7" value="" style="edgeStyle=orthogonalEdgeStyle;rounded=1;orthogonalLoop=1;jettySize=auto;html=1;shadow=0;" edge="1" parent="1" source="Ez3ZbAeKuc7IrQRngPXJ-2" target="Ez3ZbAeKuc7IrQRngPXJ-4">
          <mxGeometry relative="1" as="geometry" />
        </mxCell>
        <mxCell id="Ez3ZbAeKuc7IrQRngPXJ-63" value="&lt;font style=&quot;font-size: 8px;&quot;&gt;save/delete fav&lt;/font&gt;" style="edgeLabel;html=1;align=center;verticalAlign=middle;resizable=0;points=[];fontFamily=Helvetica;fontSize=11;fontColor=default;labelBackgroundColor=default;" vertex="1" connectable="0" parent="Ez3ZbAeKuc7IrQRngPXJ-7">
          <mxGeometry x="0.0412" relative="1" as="geometry">
            <mxPoint x="-4" as="offset" />
          </mxGeometry>
        </mxCell>
        <mxCell id="Ez3ZbAeKuc7IrQRngPXJ-2" value="&lt;font style=&quot;font-size: 10px;&quot;&gt;Node BE&lt;/font&gt;" style="whiteSpace=wrap;html=1;rounded=1;shadow=0;" vertex="1" parent="1">
          <mxGeometry x="250" y="359.98" width="60" height="119" as="geometry" />
        </mxCell>
        <mxCell id="Ez3ZbAeKuc7IrQRngPXJ-45" value="" style="edgeStyle=orthogonalEdgeStyle;curved=1;rounded=0;orthogonalLoop=1;jettySize=auto;html=1;" edge="1" parent="1" source="Ez3ZbAeKuc7IrQRngPXJ-4" target="Ez3ZbAeKuc7IrQRngPXJ-44">
          <mxGeometry relative="1" as="geometry" />
        </mxCell>
        <mxCell id="Ez3ZbAeKuc7IrQRngPXJ-47" value="" style="edgeStyle=orthogonalEdgeStyle;curved=1;rounded=0;orthogonalLoop=1;jettySize=auto;html=1;entryX=-0.037;entryY=0.351;entryDx=0;entryDy=0;entryPerimeter=0;" edge="1" parent="1" source="Ez3ZbAeKuc7IrQRngPXJ-4" target="Ez3ZbAeKuc7IrQRngPXJ-50">
          <mxGeometry relative="1" as="geometry">
            <mxPoint x="430.0000000000002" y="380.0032558139536" as="targetPoint" />
          </mxGeometry>
        </mxCell>
        <mxCell id="Ez3ZbAeKuc7IrQRngPXJ-64" style="edgeStyle=orthogonalEdgeStyle;rounded=1;orthogonalLoop=1;jettySize=auto;html=1;entryX=0;entryY=0.25;entryDx=0;entryDy=0;shadow=0;strokeColor=default;align=center;verticalAlign=middle;fontFamily=Helvetica;fontSize=11;fontColor=default;labelBackgroundColor=default;endArrow=classic;" edge="1" parent="1" source="Ez3ZbAeKuc7IrQRngPXJ-4" target="Ez3ZbAeKuc7IrQRngPXJ-51">
          <mxGeometry relative="1" as="geometry" />
        </mxCell>
        <mxCell id="Ez3ZbAeKuc7IrQRngPXJ-4" value="&lt;font style=&quot;font-size: 10px;&quot;&gt;Mongo DB&lt;/font&gt;" style="whiteSpace=wrap;html=1;aspect=fixed;rounded=1;shadow=0;" vertex="1" parent="1">
          <mxGeometry x="415" y="390" width="60" height="60" as="geometry" />
        </mxCell>
        <mxCell id="Ez3ZbAeKuc7IrQRngPXJ-44" value="&lt;font style=&quot;font-size: 8px;&quot;&gt;fav recipe are stored&lt;/font&gt;" style="ellipse;whiteSpace=wrap;html=1;rounded=1;shadow=0;" vertex="1" parent="1">
          <mxGeometry x="420" y="480" width="50" height="50" as="geometry" />
        </mxCell>
        <mxCell id="Ez3ZbAeKuc7IrQRngPXJ-50" value="&lt;font style=&quot;font-size: 9px;&quot;&gt;User Schema&lt;/font&gt;" style="whiteSpace=wrap;html=1;" vertex="1" parent="1">
          <mxGeometry x="520" y="410" width="70" height="30" as="geometry" />
        </mxCell>
        <mxCell id="Ez3ZbAeKuc7IrQRngPXJ-51" value="&lt;font style=&quot;font-size: 9px;&quot;&gt;Recipe Schema&lt;/font&gt;" style="whiteSpace=wrap;html=1;" vertex="1" parent="1">
          <mxGeometry x="475" y="340" width="70" height="30" as="geometry" />
        </mxCell>
        <mxCell id="Ez3ZbAeKuc7IrQRngPXJ-53" value="spoonacularAPI" style="rounded=0;whiteSpace=wrap;html=1;" vertex="1" parent="1">
          <mxGeometry x="231.25" y="520.02" width="97.5" height="40" as="geometry" />
        </mxCell>
        <mxCell id="Ez3ZbAeKuc7IrQRngPXJ-58" value="" style="edgeStyle=none;orthogonalLoop=1;jettySize=auto;html=1;endArrow=classic;startArrow=classic;endSize=8;startSize=8;rounded=0;entryX=0.5;entryY=0;entryDx=0;entryDy=0;" edge="1" parent="1" target="Ez3ZbAeKuc7IrQRngPXJ-53">
          <mxGeometry width="100" relative="1" as="geometry">
            <mxPoint x="280" y="480.02" as="sourcePoint" />
            <mxPoint x="250.2025" y="473.29999999999995" as="targetPoint" />
            <Array as="points" />
          </mxGeometry>
        </mxCell>
        <mxCell id="Ez3ZbAeKuc7IrQRngPXJ-60" value="" style="edgeStyle=none;orthogonalLoop=1;jettySize=auto;html=1;rounded=0;curved=1;exitX=-0.035;exitY=0.919;exitDx=0;exitDy=0;exitPerimeter=0;entryX=0.441;entryY=0.997;entryDx=0;entryDy=0;entryPerimeter=0;" edge="1" parent="1" source="Ez3ZbAeKuc7IrQRngPXJ-2" target="Ez3ZbAeKuc7IrQRngPXJ-1">
          <mxGeometry width="100" relative="1" as="geometry">
            <mxPoint x="239.3" y="419.98" as="sourcePoint" />
            <mxPoint x="-7.105427357601002e-14" y="422.62" as="targetPoint" />
            <Array as="points">
              <mxPoint x="130" y="580" />
            </Array>
          </mxGeometry>
        </mxCell>
        <mxCell id="Ez3ZbAeKuc7IrQRngPXJ-61" value="&lt;font style=&quot;font-size: 9px;&quot;&gt;Data&lt;/font&gt;" style="edgeLabel;html=1;align=center;verticalAlign=middle;resizable=0;points=[];" vertex="1" connectable="0" parent="Ez3ZbAeKuc7IrQRngPXJ-60">
          <mxGeometry x="0.2706" y="-21" relative="1" as="geometry">
            <mxPoint y="-2" as="offset" />
          </mxGeometry>
        </mxCell>
        <mxCell id="Ez3ZbAeKuc7IrQRngPXJ-22" value="&lt;font style=&quot;font-size: 8px;&quot;&gt;Protected Route&lt;/font&gt;" style="rounded=0;whiteSpace=wrap;html=1;rotation=90;" vertex="1" parent="1">
          <mxGeometry x="60" y="399.48" width="90" height="40" as="geometry" />
        </mxCell>
        <mxCell id="Ez3ZbAeKuc7IrQRngPXJ-70" value="&lt;div style=&quot;text-align: left;&quot;&gt;&lt;span style=&quot;background-color: light-dark(rgb(255, 255, 255), rgb(18, 18, 18)); font-family: Poppins, sans-serif;&quot;&gt;&lt;font style=&quot;font-size: 10px;&quot;&gt;recipes/{id}/information&lt;/font&gt;&lt;/span&gt;&lt;/div&gt;&lt;div style=&quot;text-align: left;&quot;&gt;&lt;span style=&quot;font-family: Poppins, sans-serif; background-color: rgb(255, 255, 255);&quot;&gt;&lt;font style=&quot;font-size: 10px; color: rgb(0, 0, 0);&quot;&gt;recipes/complexSearch&lt;/font&gt;&lt;/span&gt;&lt;/div&gt;" style="rounded=0;whiteSpace=wrap;html=1;" vertex="1" parent="1">
          <mxGeometry x="225" y="600.02" width="110" height="49.98" as="geometry" />
        </mxCell>
        <mxCell id="Ez3ZbAeKuc7IrQRngPXJ-76" value="" style="edgeStyle=none;orthogonalLoop=1;jettySize=auto;html=1;endArrow=classic;startArrow=classic;endSize=8;startSize=8;rounded=1;shadow=0;strokeColor=default;align=center;verticalAlign=middle;fontFamily=Helvetica;fontSize=11;fontColor=default;labelBackgroundColor=default;entryX=0.5;entryY=0;entryDx=0;entryDy=0;exitX=0.5;exitY=1;exitDx=0;exitDy=0;" edge="1" parent="1" source="Ez3ZbAeKuc7IrQRngPXJ-53" target="Ez3ZbAeKuc7IrQRngPXJ-70">
          <mxGeometry width="100" relative="1" as="geometry">
            <mxPoint x="280" y="580.02" as="sourcePoint" />
            <mxPoint x="280.46" y="618.9204399999999" as="targetPoint" />
            <Array as="points">
              <mxPoint x="279.54" y="600.02" />
            </Array>
          </mxGeometry>
        </mxCell>
      </root>
    </mxGraphModel>
  </diagram>
</mxfile>
